<svg xmlns="http://www.w3.org/2000/svg" style="display: none;">
  <!-- Success Icon -->
  <symbol id="icon-success" viewBox="0 0 24 24">
    <path d="M9 16.17L4.83 12l-1.42 1.41L9 19 21 7l-1.41-1.41z"/>
  </symbol>
  
  <!-- Error Icon -->
  <symbol id="icon-error" viewBox="0 0 24 24">
    <path d="M12 2C6.48 2 2 6.48 2 12s4.48 10 10 10 10-4.48 10-10S17.52 2 12 2zm-2 15l-5-5 1.41-1.41L10 14.17l7.59-7.59L19 8l-9 9z"/>
  </symbol>
  
  <!-- Warning Icon -->
  <symbol id="icon-warning" viewBox="0 0 24 24">
    <path d="M1 21h22L12 2 1 21zm12-3h-2v-2h2v2zm0-4h-2v-4h2v4z"/>
  </symbol>
  
  <!-- Info Icon -->
  <symbol id="icon-info" viewBox="0 0 24 24">
    <path d="M12 2C6.48 2 2 6.48 2 12s4.48 10 10 10 10-4.48 10-10S17.52 2 12 2zm1 15h-2v-6h2v6zm0-8h-2V7h2v2z"/>
  </symbol>
  
  <!-- Loading/Spinner Icon -->
  <symbol id="icon-loading" viewBox="0 0 24 24">
    <path d="M12,1A11,11,0,1,0,23,12,11,11,0,0,0,12,1Zm0,19a8,8,0,1,1,8-8A8,8,0,0,1,12,20Z" opacity=".25"/>
    <path d="M12,4a8,8,0,0,1,7.89,6.7A1.53,1.53,0,0,0,21.38,12h0a1.5,1.5,0,0,0,1.48-1.75,11,11,0,0,0-21.72,0A1.5,1.5,0,0,0,2.62,12h0a1.53,1.53,0,0,0,1.49-1.3A8,8,0,0,1,12,4Z"/>
  </symbol>
  
  <!-- Logout Icon -->
  <symbol id="icon-logout" viewBox="0 0 24 24">
    <path d="M17 7l-1.41 1.41L18.17 11H8v2h10.17l-2.58 2.59L17 17l5-5zM4 5h8V3H4c-1.1 0-2 .9-2 2v14c0 1.1.9 2 2 2h8v-2H4V5z"/>
  </symbol>
  
  <!-- User Icon -->
  <symbol id="icon-user" viewBox="0 0 24 24">
    <path d="M12 12c2.21 0 4-1.79 4-4s-1.79-4-4-4-4 1.79-4 4 1.79 4 4 4zm0 2c-2.67 0-8 1.34-8 4v2h16v-2c0-2.66-5.33-4-8-4z"/>
  </symbol>
  
  <!-- Report Icon -->
  <symbol id="icon-report" viewBox="0 0 24 24">
    <path d="M14,2H6A2,2 0 0,0 4,4V20A2,2 0 0,0 6,22H18A2,2 0 0,0 20,20V8L14,2M18,20H6V4H13V9H18V20Z"/>
  </symbol>
  
  <!-- Share Icon -->
  <symbol id="icon-share" viewBox="0 0 24 24">
    <path d="M18 16.08c-.76 0-1.44.3-1.96.77L8.91 12.7c.05-.23.09-.46.09-.7s-.04-.47-.09-.7l7.05-4.11c.54.5 1.25.81 2.04.81 1.66 0 3-1.34 3-3s-1.34-3-3-3-3 1.34-3 3c0 .24.04.47.09.7L8.04 9.81C7.5 9.31 6.79 9 6 9c-1.66 0-3 1.34-3 3s1.34 3 3 3c.79 0 1.5-.31 2.04-.81l7.12 4.16c-.05.21-.08.43-.08.65 0 1.61 1.31 2.92 2.92 2.92 1.61 0 2.92-1.31 2.92-2.92s-1.31-2.92-2.92-2.92z"/>
  </symbol>
  
  <!-- Team Icon -->
  <symbol id="icon-team" viewBox="0 0 24 24">
    <path d="M16 4c0-1.11.89-2 2-2s2 .89 2 2-.89 2-2 2-2-.89-2-2zM4 18v-4h3v4h2v-7.5c0-1.1-.9-2-2-2s-2 .9-2 2V18H4zm14.5-13c.83 0 1.5-.67 1.5-1.5S19.33 2 18.5 2 17 2.67 17 3.5s.67 1.5 1.5 1.5zm-2.5 6L16 7l-1.5 4-1.5-2-1.5 2L16 15l-1.5-4 1.5-2 1.5 2z"/>
  </symbol>
  
  <!-- Dashboard Icon -->
  <symbol id="icon-dashboard" viewBox="0 0 24 24">
    <path d="M3 13h8V3H3v10zm0 8h8v-6H3v6zm10 0h8V11h-8v10zm0-18v6h8V3h-8z"/>
  </symbol>
  
  <!-- Create Icon -->
  <symbol id="icon-create" viewBox="0 0 24 24">
    <path d="M19 13h-6v6h-2v-6H5v-2h6V5h2v6h6v2z"/>
  </symbol>
  
  <!-- Eye Icon (View) -->
  <symbol id="icon-view" viewBox="0 0 24 24">
    <path d="M12 4.5C7 4.5 2.73 7.61 1 12c1.73 4.39 6 7.5 11 7.5s9.27-3.11 11-7.5c-1.73-4.39-6-7.5-11-7.5zM12 17c-2.76 0-5-2.24-5-5s2.24-5 5-5 5 2.24 5 5-2.24 5-5 5zm0-8c-1.66 0-3 1.34-3 3s1.34 3 3 3 3-1.34 3-3-1.34-3-3-3z"/>
  </symbol>
  
  <!-- Shield Icon (Security) -->
  <symbol id="icon-shield" viewBox="0 0 24 24">
    <path d="M12,1L3,5V11C3,16.55 6.84,21.74 12,23C17.16,21.74 21,16.55 21,11V5L12,1M12,7C13.4,7 14.8,8.6 14.8,10V11H16V16H8V11H9.2V10C9.2,8.6 10.6,7 12,7M12,8.2C11.2,8.2 10.4,8.7 10.4,10V11H13.6V10C13.6,8.7 12.8,8.2 12,8.2Z"/>
  </symbol>
  
  <!-- Skull Icon (Paranormal Theme) -->
  <symbol id="icon-skull" viewBox="0 0 24 24">
    <path d="M12,2A9,9 0 0,0 3,11C3,14.03 4.53,16.82 7,18.47V22H9V19H11V22H13V19H15V22H17V18.46C19.47,16.81 21,14.03 21,11A9,9 0 0,0 12,2M8,11A2,2 0 0,1 10,9A2,2 0 0,1 12,11A2,2 0 0,1 10,13A2,2 0 0,1 8,11M14,11A2,2 0 0,1 16,9A2,2 0 0,1 18,11A2,2 0 0,1 16,13A2,2 0 0,1 14,11M12,14L13.5,17H10.5L12,14Z"/>
  </symbol>
</svg>